<?xml version="1.0" encoding="utf-8"?>
<svg viewBox="0 0 500 500" width="500" height="500" xmlns="http://www.w3.org/2000/svg">
  <rect x="9.974" y="11.396" width="478.5" height="475.89" style="stroke: rgb(106, 130, 220); stroke-width: 12px; fill: rgb(255, 255, 255);"/>
  <path d="M 162.38340311279296 391.322998046875 L 162.38340311279296 117.791998046875 L 247.06560311279296 117.791998046875 Q 271.42110311279293 117.791998046875 289.781403112793 127.721548046875 Q 308.1417031127929 137.651098046875 318.25860311279297 155.26199804687502 Q 328.37550311279296 172.872898046875 328.37550311279296 196.478998046875 Q 328.37550311279296 224.206798046875 313.94955311279296 244.06589804687502 Q 299.52360311279296 263.924998046875 274.79340311279293 271.418998046875 L 332.12250311279297 391.322998046875 L 292.40430311279295 391.322998046875 L 239.94630311279298 275.165998046875 L 196.10640311279298 275.165998046875 L 196.10640311279298 391.322998046875 Z M 196.10640311279298 244.815298046875 L 247.06560311279296 244.815298046875 Q 268.04880311279294 244.815298046875 280.788603112793 231.513448046875 Q 293.52840311279294 218.211598046875 293.52840311279294 196.478998046875 Q 293.52840311279294 174.37169804687503 280.788603112793 161.257198046875 Q 268.04880311279294 148.142698046875 247.06560311279296 148.142698046875 L 196.10640311279298 148.142698046875 Z" transform="matrix(1, 0, 0, 1, 0, 0)" style="fill: rgb(106, 130, 220); white-space: pre;"/>
</svg>